<svg xmlns="http://www.w3.org/2000/svg" width="100px" height="14.828px" viewBox="0 0 100 14.828">
	<style>
		.primary1 { fill: #428086; }
		.primary2 { fill: #92D5D5; }
	</style>
	<g id="and_associates" class="primary1">
		<path d="M29.977,12.715h0.025l1.004,2.073H30.47l-0.143-0.313h-0.679l-0.14,0.313h-0.536L29.977,12.715z
			 M30.181,14.126c-0.07-0.161-0.151-0.363-0.19-0.488c-0.028,0.068-0.138,0.358-0.194,0.488H30.181z"/>
		<path d="M33.833,14.816l-1.035-0.923l-0.163-0.137v1.031h-0.502v-2.073h0.022l1.026,0.92
			c0.056,0.046,0.109,0.097,0.166,0.14v-1.031h0.505v2.073H33.833z"/>
		<path d="M35.197,14.788v-2.045h0.676c0.707,0,1.145,0.432,1.145,1.022c0,0.594-0.438,1.022-1.142,1.022H35.197z
			 M35.71,13.181v1.17h0.16c0.409,0,0.628-0.267,0.628-0.585s-0.219-0.585-0.631-0.585H35.71z"/>
		<path d="M40.476,12.715h0.025l1.004,2.073H40.97l-0.143-0.313h-0.679l-0.14,0.313h-0.536L40.476,12.715z
			 M40.681,14.126c-0.07-0.161-0.151-0.363-0.191-0.488c-0.028,0.068-0.137,0.358-0.193,0.488H40.681z"/>
		<path d="M42.563,14.717v-0.5c0.143,0.077,0.314,0.134,0.477,0.148c0.056,0.005,0.109,0.005,0.16,0.003
			c0.166-0.012,0.258-0.058,0.258-0.143c0-0.107-0.126-0.162-0.373-0.256c-0.34-0.13-0.558-0.272-0.558-0.647
			s0.306-0.619,0.766-0.619c0.202,0,0.404,0.04,0.538,0.097v0.48c-0.121-0.077-0.311-0.128-0.496-0.128
			c-0.186,0-0.303,0.064-0.303,0.167c0,0.097,0.118,0.162,0.354,0.259c0.339,0.137,0.572,0.281,0.572,0.645
			c0,0.378-0.281,0.605-0.783,0.605C42.944,14.828,42.714,14.782,42.563,14.717"/>
		<path d="M45.104,14.717v-0.5c0.143,0.077,0.314,0.134,0.477,0.148c0.056,0.005,0.109,0.005,0.16,0.003
			c0.166-0.012,0.258-0.058,0.258-0.143c0-0.107-0.126-0.162-0.373-0.256c-0.339-0.13-0.558-0.272-0.558-0.647
			s0.306-0.619,0.766-0.619c0.202,0,0.404,0.04,0.539,0.097v0.48c-0.121-0.077-0.311-0.128-0.496-0.128
			c-0.186,0-0.303,0.064-0.303,0.167c0,0.097,0.118,0.162,0.354,0.259c0.339,0.137,0.572,0.281,0.572,0.645
			c0,0.378-0.281,0.605-0.783,0.605C45.486,14.828,45.256,14.782,45.104,14.717"/>
		<path d="M48.667,12.703c0.623,0,1.069,0.475,1.069,1.063c0,0.594-0.443,1.063-1.069,1.063
			c-0.622,0-1.068-0.469-1.068-1.063C47.598,13.181,48.044,12.703,48.667,12.703 M48.667,14.354c0.329,0,0.55-0.27,0.55-0.588
			c0-0.315-0.222-0.588-0.55-0.588c-0.328,0-0.552,0.272-0.552,0.588C48.114,14.084,48.339,14.354,48.667,14.354"/>
		<path d="M52.563,13.313c-0.115-0.06-0.294-0.136-0.536-0.136c-0.382,0-0.603,0.272-0.603,0.588
			c0,0.318,0.216,0.588,0.581,0.588c0.258,0,0.452-0.074,0.572-0.136v0.479c-0.123,0.065-0.353,0.131-0.617,0.131
			c-0.606,0-1.052-0.466-1.052-1.063c0-0.591,0.446-1.063,1.074-1.063c0.269,0,0.457,0.071,0.581,0.137V13.313z"/>
		<rect x="53.814" y="12.743" width="0.513" height="2.045"/>
		<path d="M56.457,12.715h0.025l1.004,2.073H56.95l-0.143-0.313h-0.679l-0.14,0.313h-0.536L56.457,12.715z
			 M56.661,14.126c-0.07-0.161-0.151-0.363-0.19-0.488c-0.028,0.068-0.138,0.358-0.194,0.488H56.661z"/>
		<polygon points="59.34,13.181 59.34,14.788 58.824,14.788 58.824,13.181 58.286,13.181 58.286,12.743 
			59.878,12.743 59.878,13.181 	"/>
		<polygon points="61.057,14.788 61.057,12.743 62.381,12.743 62.381,13.181 61.57,13.181 61.57,13.544 
			62.263,13.544 62.263,13.959 61.57,13.959 61.57,14.351 62.423,14.351 62.423,14.788 	"/>
		<path d="M63.584,14.717v-0.5c0.143,0.077,0.314,0.134,0.477,0.148c0.056,0.005,0.109,0.005,0.16,0.003
			c0.165-0.012,0.258-0.058,0.258-0.143c0-0.107-0.126-0.162-0.373-0.256c-0.339-0.13-0.558-0.272-0.558-0.647
			s0.306-0.619,0.766-0.619c0.202,0,0.404,0.04,0.539,0.097v0.48c-0.121-0.077-0.312-0.128-0.497-0.128s-0.303,0.064-0.303,0.167
			c0,0.097,0.118,0.162,0.353,0.259c0.339,0.137,0.572,0.281,0.572,0.645c0,0.378-0.28,0.605-0.782,0.605
			C63.966,14.828,63.736,14.782,63.584,14.717"/>
		<rect x="67.635" y="12.743" width="0.513" height="2.045"/>
		<path d="M71.191,14.816l-1.035-0.923l-0.163-0.137v1.031h-0.502v-2.073h0.022l1.027,0.92
			c0.056,0.046,0.109,0.097,0.165,0.14v-1.031h0.505v2.073H71.191z"/>
		<path d="M74.095,13.313c-0.115-0.06-0.294-0.136-0.536-0.136c-0.381,0-0.603,0.272-0.603,0.588
			c0,0.318,0.216,0.588,0.581,0.588c0.258,0,0.451-0.074,0.572-0.136v0.479c-0.124,0.065-0.354,0.131-0.617,0.131
			c-0.606,0-1.052-0.466-1.052-1.063c0-0.591,0.446-1.063,1.074-1.063c0.269,0,0.457,0.071,0.581,0.137V13.313z"/>
		<path d="M76.297,12.703c0.623,0,1.068,0.475,1.068,1.063c0,0.594-0.443,1.063-1.068,1.063
			c-0.623,0-1.069-0.469-1.069-1.063C75.228,13.181,75.674,12.703,76.297,12.703 M76.297,14.354c0.328,0,0.55-0.27,0.55-0.588
			c0-0.315-0.222-0.588-0.55-0.588s-0.553,0.272-0.553,0.588C75.744,14.084,75.969,14.354,76.297,14.354"/>
		<path d="M79.332,12.743c0.483,0,0.816,0.235,0.816,0.695c0,0.296-0.148,0.492-0.37,0.591l0.407,0.759h-0.536
			l-0.326-0.673h-0.224v0.673h-0.502v-2.045H79.332z M79.099,13.181v0.52h0.258c0.154,0,0.272-0.074,0.272-0.262
			c0-0.179-0.121-0.258-0.275-0.258H79.099z"/>
		<path d="M81.918,14.138v0.65h-0.513v-2.045h0.673c0.485,0,0.822,0.232,0.822,0.695c0,0.469-0.337,0.699-0.822,0.699
			H81.918z M81.918,13.181v0.52h0.185c0.157,0,0.278-0.077,0.278-0.262c0-0.179-0.124-0.258-0.28-0.258H81.918z"/>
		<path d="M85.088,12.703c0.623,0,1.068,0.475,1.068,1.063c0,0.594-0.443,1.063-1.068,1.063
			c-0.623,0-1.069-0.469-1.069-1.063C84.019,13.181,84.465,12.703,85.088,12.703 M85.088,14.354c0.328,0,0.55-0.27,0.55-0.588
			c0-0.315-0.222-0.588-0.55-0.588s-0.553,0.272-0.553,0.588C84.535,14.084,84.76,14.354,85.088,14.354"/>
		<path d="M88.123,12.743c0.482,0,0.816,0.235,0.816,0.695c0,0.296-0.148,0.492-0.37,0.591l0.407,0.759H88.44
			l-0.326-0.673H87.89v0.673h-0.502v-2.045H88.123z M87.89,13.181v0.52h0.258c0.154,0,0.272-0.074,0.272-0.262
			c0-0.179-0.121-0.258-0.274-0.258H87.89z"/>
		<path d="M90.981,12.715h0.025l1.004,2.073h-0.536l-0.144-0.313h-0.679l-0.14,0.313h-0.536L90.981,12.715z
			 M91.186,14.126c-0.07-0.161-0.151-0.363-0.191-0.488c-0.028,0.068-0.137,0.358-0.193,0.488H91.186z"/>
		<polygon points="93.865,13.181 93.865,14.788 93.349,14.788 93.349,13.181 92.811,13.181 92.811,12.743 
			94.404,12.743 94.404,13.181 	"/>
		<polygon points="95.582,14.788 95.582,12.743 96.906,12.743 96.906,13.181 96.095,13.181 96.095,13.544 
			96.788,13.544 96.788,13.959 96.095,13.959 96.095,14.351 96.948,14.351 96.948,14.788 	"/>
		<path d="M98.179,14.788v-2.045h0.676c0.707,0,1.145,0.432,1.145,1.022c0,0.594-0.438,1.022-1.142,1.022H98.179z
			 M98.692,13.181v1.17h0.16c0.409,0,0.628-0.267,0.628-0.585s-0.219-0.585-0.631-0.585H98.692z"/>
	</g>
	<g id="kauffman" class="primary1">
		<polygon points="30.391,5.614 33.892,1.487 35.591,1.487 32.665,4.85 35.636,9.694 34.027,9.694 31.708,5.808 
			30.391,7.278 30.391,9.694 28.972,9.694 28.972,1.487 30.391,1.487 	"/>
		<path d="M41.174,1.362h0.045l3.839,8.332h-1.486l-0.72-1.63h-3.31l-0.72,1.63h-1.486L41.174,1.362z M42.39,6.993
			c-0.462-1.049-0.844-1.972-1.182-2.907c-0.349,0.855-0.765,1.904-1.205,2.907H42.39z"/>
		<path d="M53.624,6.765c0,1.892-1.216,3.078-3.265,3.078c-2.037,0-3.253-1.186-3.253-3.078V1.487h1.407V6.64
			c0,1.186,0.687,1.881,1.846,1.881c1.171,0,1.846-0.695,1.846-1.881V1.487h1.418V6.765z"/>
		<polygon points="58.543,2.696 58.543,5.021 61.424,5.021 61.424,6.218 58.543,6.218 58.543,9.694 57.125,9.694 
			57.125,1.487 61.965,1.487 61.965,2.696 	"/>
		<polygon points="66.399,2.696 66.399,5.021 69.281,5.021 69.281,6.218 66.399,6.218 66.399,9.694 64.981,9.694 
			64.981,1.487 69.822,1.487 69.822,2.696 	"/>
		<path d="M74.515,4.964L74.2,4.645v5.049h-1.362V1.362h0.022l3.771,4.24l3.771-4.24h0.022v8.332h-1.351V4.645
			l-0.326,0.319c-0.698,0.832-1.408,1.652-2.117,2.473L74.515,4.964z"/>
		<path d="M86.908,1.362h0.045l3.839,8.332h-1.486l-0.721-1.63h-3.309l-0.721,1.63H83.07L86.908,1.362z M88.124,6.993
			c-0.461-1.049-0.844-1.972-1.182-2.907c-0.349,0.855-0.765,1.904-1.204,2.907H88.124z"/>
		<path d="M99.966,9.82l-4.739-4.913c-0.124-0.114-0.259-0.251-0.394-0.365v5.152h-1.396V1.362h0.045l4.728,4.901
			l0.394,0.388V1.487H100V9.82H99.966z"/>
	</g>
	<g id="mark">
		<polygon class="primary2" points="6.719,4.799 9.319,8.68 15.098,0.054 23.044,11.914 23.044,0 9.934,0 	"/>
		<polygon class="primary2" points="0,0 0,11.978 8.024,0 	"/>
		<polygon class="primary1" points="5.764,6.224 0,14.828 11.528,14.828 	"/>
		<polygon class="primary1" points="15.098,2.905 10.273,10.105 13.438,14.828 23.044,14.828 23.044,14.765 	"/>
	</g>
</svg>
